<svg width="576" height="568" viewBox="0 0 576 568" fill="none" xmlns="http://www.w3.org/2000/svg">
<rect x="76.0003" y="75.9999" width="400" height="400" rx="50" fill="url(#paint0_linear)"/>
<path d="M279.473 167.557L204.848 236.443L180.458 220.792L202.183 157.881L153.593 203.552L129.204 187.901L161.294 91.7181L182.856 105.555L156.131 173.408L209.485 122.643L231.636 136.858L207.149 206.148L257.793 153.644L279.473 167.557ZM286.409 194.797L275.676 211.531L302.658 228.846L292.68 244.4L265.698 227.085L254.057 245.233L284.574 264.816L274.218 280.96L223.553 248.447L276.617 165.724L327.282 198.237L316.926 214.381L286.409 194.797ZM351.626 270.75C355.762 274.846 358.074 279.712 358.562 285.348C359.1 290.905 357.832 296.08 354.758 300.872C350.323 307.785 344.361 311.722 336.87 312.682C329.509 313.614 321.508 311.307 312.867 305.762L274.338 281.037L327.402 198.313L364.635 222.207C373.039 227.6 378.364 233.734 380.608 240.608C382.93 247.532 381.975 254.294 377.742 260.893C374.617 265.764 370.726 268.978 366.068 270.535C361.488 272.143 356.674 272.215 351.626 270.75ZM326.082 244.71L339.279 253.178C342.578 255.295 345.545 256.201 348.18 255.896C350.945 255.563 353.234 253.982 355.048 251.154C356.862 248.326 357.344 245.586 356.495 242.934C355.725 240.332 353.69 237.973 350.391 235.856L337.194 227.387L326.082 244.71ZM319.764 287.232C323.141 289.399 326.212 290.316 328.976 289.983C331.869 289.622 334.248 287.988 336.113 285.081C337.977 282.174 338.457 279.266 337.551 276.356C336.724 273.496 334.622 270.983 331.244 268.815L316.634 259.44L304.918 277.705L319.764 287.232ZM252.903 270.513C261.622 276.109 268.132 282.726 272.435 290.367C276.737 298.007 278.64 306.104 278.143 314.657C277.776 323.182 274.971 331.53 269.731 339.7C264.54 347.792 258.123 353.821 250.478 357.787C242.912 361.803 234.721 363.423 225.905 362.645C217.168 361.918 208.48 358.782 199.839 353.237L168.851 333.351L221.914 250.627L252.903 270.513ZM209.73 334.965C217.349 339.855 224.615 341.578 231.528 340.137C238.441 338.695 244.341 334.164 249.229 326.544C254.117 318.924 255.801 311.631 254.28 304.667C252.76 297.703 248.19 291.776 240.57 286.886L231.027 280.762L200.186 328.84L209.73 334.965ZM304.354 326.32L293.62 343.054L320.602 360.369L310.624 375.924L283.642 358.609L272.002 376.756L302.518 396.339L292.163 412.483L241.498 379.97L294.561 297.247L345.226 329.76L334.871 345.904L304.354 326.32ZM422.993 379.665L340.591 443.561L315.376 427.38L339.101 325.829L360.545 339.59L340.985 415.202L401.667 365.979L422.993 379.665ZM374.211 466.467C370.676 464.198 368.425 461.312 367.457 457.807C366.618 454.275 367.182 450.977 369.147 447.913C371.163 444.771 373.95 442.844 377.51 442.135C381.149 441.475 384.736 442.28 388.27 444.548C391.727 446.766 393.874 449.642 394.713 453.174C395.63 456.757 395.081 460.12 393.065 463.262C391.1 466.326 388.298 468.187 384.66 468.847C381.15 469.478 377.667 468.685 374.211 466.467Z" fill="url(#paint1_linear)"/>
<defs>
<linearGradient id="paint0_linear" x1="276" y1="75.9999" x2="276" y2="476" gradientUnits="userSpaceOnUse">
<stop stop-color="#DAB56E"/>
<stop offset="1" stop-color="#AC502A"/>
</linearGradient>
<linearGradient id="paint1_linear" x1="287.666" y1="265.948" x2="66.3834" y2="450.92" gradientUnits="userSpaceOnUse">
<stop stop-color="white"/>
<stop offset="1" stop-color="#AC502A" stop-opacity="0"/>
</linearGradient>
</defs>
</svg>
